<?xml version="1.0" encoding="utf-8"?>
<!-- Created by UniConvertor 2.0rc5 (https://sk1project.net/) -->
<svg xmlns="http://www.w3.org/2000/svg" height="120.0pt" viewBox="0 0 145.0 120.0" width="145.0pt" version="1.1" xmlns:xlink="http://www.w3.org/1999/xlink" id="67f9f290-7e64-11f0-b588-af954f183cfd">

<g>
	<g>
		<path style="fill:#000000;" d="M 69.8,8.0 C 68.8,8.6 67.9,10.9 67.5,13.8 66.3,22.9 65.9,25.0 65.1,25.0 64.6,25.0 64.0,23.2 63.7,20.9 62.7,13.3 57.8,10.9 51.7,15.2 40.4,23.2 28.9,39.1 27.1,49.4 26.6,52.5 26.0,53.4 24.7,53.2 22.5,52.8 19.7,54.3 13.1,59.3 7.8,63.4 7.8,63.4 8.2,68.1 8.7,72.6 10.4,75.7 15.7,81.6 18.3,84.4 25.2,84.9 28.6,82.6 30.6,81.2 30.6,81.3 30.2,90.1 29.6,103.0 31.4,107.4 38.7,110.6 43.1,112.6 53.0,114.0 53.0,112.7 53.0,112.5 51.1,110.3 48.9,107.9 45.1,103.9 42.0,98.5 42.0,96.1 42.0,95.5 43.4,94.3 45.2,93.4 47.9,92.0 49.2,91.9 53.3,92.9 57.3,93.8 58.5,93.7 60.3,92.5 61.6,91.6 64.7,91.0 68.1,91.0 75.0,91.0 80.3,94.1 80.8,98.3 81.1,100.6 80.6,101.3 77.6,102.5 75.7,103.3 72.0,104.0 69.5,104.0 65.6,104.0 64.4,103.4 60.6,100.0 55.3,95.1 50.7,93.5 46.8,95.1 45.2,95.7 44.0,96.6 44.0,97.0 44.0,97.4 45.5,99.9 47.3,102.6 54.9,113.9 59.1,114.3 98.5,107.1 118.3,103.5 123.0,101.8 123.0,98.1 123.0,95.3 117.6,80.1 114.3,73.5 113.2,71.3 111.5,66.1 110.5,62.0 109.5,57.9 107.4,50.7 105.8,46.1 104.3,41.4 103.0,36.0 103.0,34.0 103.0,29.7 100.4,20.5 98.4,17.2 96.3,14.0 91.5,14.3 85.7,18.0 83.1,19.6 80.7,21.0 80.5,21.0 80.3,21.0 80.9,19.1 82.0,16.8 84.0,12.3 83.4,9.6 80.3,8.6 75.9,7.3 71.4,7.1 69.8,8.0 Z M 76.3,23.5 C 75.9,25.0 68.7,24.7 68.2,23.2 67.9,22.2 68.9,22.0 72.1,22.2 74.5,22.4 76.4,22.9 76.3,23.5 Z M 70.8,27.7 C 69.8,27.9 68.0,27.9 66.8,27.7 65.5,27.5 66.3,27.3 68.5,27.3 70.7,27.2 71.7,27.4 70.8,27.7 Z M 37.5,57.9 C 39.7,58.5 45.0,59.0 49.3,59.0 56.9,59.0 57.0,59.0 57.0,56.5 57.0,54.2 57.3,54.0 59.8,54.6 63.3,55.5 63.9,56.0 61.2,56.0 59.9,56.0 59.0,56.6 59.0,57.5 59.0,59.9 55.5,61.0 48.2,61.0 38.8,61.0 31.0,58.6 31.0,55.8 31.0,53.9 31.1,53.8 32.3,55.2 32.9,56.1 35.3,57.3 37.5,57.9 Z M 90.2,64.0 C 89.3,69.3 89.2,69.4 88.5,66.2 L 87.8,63.0 80.5,63.0 C 71.1,63.0 67.2,62.2 66.0,59.9 65.1,58.3 65.2,58.3 67.8,59.5 71.8,61.6 86.6,62.6 88.5,61.0 89.3,60.3 89.7,59.4 89.4,58.9 89.1,58.4 89.2,57.4 89.7,56.7 90.9,54.7 91.2,57.9 90.2,64.0 Z M 75.5,65.6 C 78.6,66.8 76.9,68.1 73.3,67.3 71.2,66.9 64.6,66.7 58.5,66.9 38.4,67.5 37.0,67.5 36.8,66.5 36.3,64.6 70.7,63.8 75.5,65.6 Z M 104.1,76.3 C 102.9,79.4 98.8,80.8 95.7,79.1 93.6,78.0 93.7,78.0 96.3,78.5 98.5,78.9 99.7,78.4 101.8,76.2 105.0,72.9 105.4,72.9 104.1,76.3 Z" />
		<path style="fill:#000000;" d="M 12.4,37.1 L 9.6,40.0 13.3,43.7 C 15.3,45.7 17.1,47.2 17.2,46.9 17.4,46.7 18.5,44.6 19.6,42.3 L 21.8,38.1 18.5,36.1 15.2,34.2 12.4,37.1 Z M 19.0,39.4 C 19.0,40.0 18.3,41.3 17.6,42.2 16.4,43.9 16.2,43.9 14.5,42.0 13.1,40.5 13.0,39.7 13.9,38.6 15.2,37.0 19.0,37.6 19.0,39.4 Z" />
		<path style="fill:#000000;" d="M 61.8,94.1 C 59.4,95.5 59.5,96.5 62.7,99.5 64.8,101.3 66.6,102.0 69.7,102.0 75.0,102.0 79.0,100.5 79.0,98.5 79.0,94.5 66.6,91.3 61.8,94.1 Z" />
	</g>
</g>
</svg>